<?xml version="1.0" standalone="no"?>
<!DOCTYPE svg PUBLIC "-//W3C//DTD SVG 20010904//EN"
 "http://www.w3.org/TR/2001/REC-SVG-20010904/DTD/svg10.dtd">
<svg version="1.0" xmlns="http://www.w3.org/2000/svg"
 width="300.000000pt" height="300.000000pt" viewBox="0 0 300.000000 300.000000"
 preserveAspectRatio="xMidYMid meet">
<metadata>
Created by potrace 1.10, written by Peter Selinger 2001-2011
</metadata>
<g transform="translate(0.000000,300.000000) scale(0.050000,-0.050000)"
fill="#000000" stroke="none">
<path d="M3820 4846 c-151 -16 -357 -176 -432 -336 -73 -153 -34 -687 54 -741
10 -6 18 -25 18 -42 0 -104 390 -547 482 -547 61 0 310 254 409 418 411 675
135 1322 -531 1248z m334 -238 c317 -241 203 -743 -178 -782 -433 -44 -659
447 -343 745 40 39 97 75 125 81 29 6 61 15 72 19 59 23 264 -17 324 -63z"/>
<path d="M3746 4398 c-17 -17 -13 -33 14 -62 57 -62 59 -107 9 -161 -34 -37
-40 -56 -23 -73 30 -30 64 -28 94 8 34 41 85 38 146 -10 46 -37 54 -38 82 -9
39 39 40 34 -8 89 -50 58 -50 82 -1 139 21 24 34 57 28 73 -15 37 -76 36 -107
-2 -14 -16 -45 -30 -70 -30 -25 0 -56 14 -70 30 -30 36 -64 38 -94 8z"/>
<path d="M2727 4463 c-90 -18 -171 -40 -179 -48 -8 -8 -28 -15 -43 -15 -163 0
-613 -353 -769 -602 -60 -95 -86 -150 -157 -328 -124 -314 -101 -828 53 -1137
15 -31 28 -66 28 -78 0 -12 22 -51 50 -87 27 -36 50 -74 50 -85 0 -11 7 -23
15 -26 8 -4 44 -44 80 -89 140 -179 494 -414 707 -468 37 -10 104 -27 148 -38
248 -64 700 -11 975 116 630 289 984 1005 841 1697 -39 187 -57 198 -135 86
-234 -337 -464 -450 -632 -310 -124 103 -154 -18 -36 -144 46 -50 202 -68 227
-27 36 59 136 -5 160 -103 7 -29 35 -74 62 -99 57 -53 59 -84 15 -268 -56
-233 -317 -520 -567 -622 -16 -7 -57 -24 -90 -38 -177 -75 -400 -118 -542
-103 -201 21 -336 45 -398 72 -33 14 -82 36 -110 48 -252 110 -637 494 -641
638 0 14 -13 42 -30 64 -16 21 -29 58 -29 81 0 23 -11 53 -25 67 -18 18 -25
115 -25 343 0 228 7 325 25 343 14 14 25 40 25 59 0 128 119 53 266 -168 52
-78 90 -114 118 -114 41 0 41 1 6 40 -82 91 -31 213 108 259 77 26 182 -10
182 -62 0 -10 18 -9 40 3 22 12 40 38 40 57 0 47 209 243 259 243 22 0 60 22
85 49 25 26 73 51 106 55 l60 6 -63 65 c-69 70 -127 82 -174 35 -115 -115
-275 -44 -221 98 7 18 29 32 50 32 21 0 38 10 38 22 0 14 -13 16 -35 7 -81
-36 -231 -35 -259 3 -49 67 -33 94 46 79 65 -12 70 -10 59 27 -22 69 138 144
319 150 73 2 81 -3 86 -53 4 -30 -3 -55 -15 -55 -39 0 -22 -54 29 -92 28 -21
50 -49 50 -63 0 -14 18 -25 39 -25 49 0 35 51 -23 82 -116 62 3 185 126 130
27 -12 35 3 45 82 7 53 18 130 25 171 l12 75 -147 -2 c-81 -1 -221 -17 -310
-35z"/>
<path d="M2580 2942 c-42 -12 -52 -29 -63 -113 -8 -54 -20 -123 -27 -151 -12
-46 2 -68 98 -160 l112 -107 0 -242 c0 -239 1 -244 61 -327 75 -104 99 -92 85
44 l-11 105 102 90 c63 55 102 106 103 132 0 27 31 69 80 107 66 52 80 76 80
132 0 38 15 92 33 120 39 59 27 74 -83 108 -44 14 -98 41 -120 60 -150 131
-360 226 -450 202z"/>
</g>
</svg>
