<?xml version="1.0" standalone="no"?>
<!DOCTYPE svg PUBLIC "-//W3C//DTD SVG 20010904//EN"
 "http://www.w3.org/TR/2001/REC-SVG-20010904/DTD/svg10.dtd">
<svg version="1.0" xmlns="http://www.w3.org/2000/svg"
 width="300.000000pt" height="300.000000pt" viewBox="0 0 300.000000 300.000000"
 preserveAspectRatio="xMidYMid meet">
<metadata>
Created by potrace 1.10, written by Peter Selinger 2001-2011
</metadata>
<g transform="translate(0.000000,300.000000) scale(0.100000,-0.100000)"
fill="#000000" stroke="none">
<path d="M1412 2810 c-23 -10 -54 -32 -68 -47 -37 -39 -74 -121 -73 -163 0
-56 48 -140 105 -182 47 -36 52 -38 129 -38 71 0 85 3 120 27 54 37 83 72 91
111 3 18 10 35 15 38 14 8 11 60 -7 117 -18 57 -76 120 -131 143 -46 20 -130
17 -181 -6z"/>
<path d="M1320 2273 c-8 -4 -60 -35 -115 -71 -55 -35 -116 -75 -135 -87 -151
-96 -209 -138 -215 -153 -23 -57 -55 -159 -55 -176 0 -12 -6 -33 -14 -47 -7
-14 -17 -48 -21 -75 -4 -27 -13 -61 -21 -76 -8 -15 -14 -48 -14 -74 0 -41 4
-50 37 -80 75 -69 145 -33 182 96 12 41 28 95 36 120 7 25 21 74 31 108 19 67
30 79 129 150 72 52 80 45 79 -74 -1 -61 -6 -109 -14 -124 -16 -29 -27 -260
-14 -283 5 -8 27 -35 50 -59 22 -23 64 -70 94 -103 29 -33 86 -96 126 -140
132 -146 175 -199 181 -223 3 -14 0 -55 -6 -91 -7 -36 -17 -129 -22 -206 -4
-77 -13 -156 -19 -175 -5 -19 -10 -58 -10 -87 0 -47 4 -56 35 -88 42 -41 77
-45 128 -15 31 19 36 27 50 98 9 42 18 131 22 196 3 66 13 154 21 195 7 42 14
129 14 194 l0 118 -110 189 c-109 187 -110 189 -110 252 1 35 5 83 11 108 5
25 16 101 23 170 8 69 19 138 25 153 6 16 11 73 11 127 l0 99 -32 25 c-35 26
-287 117 -322 115 -12 0 -28 -3 -36 -6z"/>
<path d="M1776 1901 c-3 -4 -6 -66 -7 -137 l-3 -129 53 -100 c72 -137 89 -163
109 -169 38 -13 66 -76 143 -331 12 -38 27 -84 35 -101 7 -18 16 -49 19 -70 4
-22 13 -49 21 -61 8 -12 14 -33 14 -45 0 -13 9 -43 20 -67 11 -24 20 -53 20
-65 0 -11 7 -34 15 -49 8 -15 17 -45 21 -65 4 -20 13 -46 20 -57 17 -24 18
-124 2 -178 -19 -63 -7 -67 201 -67 97 0 186 3 199 6 30 8 28 39 -4 81 -37 49
-72 63 -157 63 -60 0 -79 4 -101 21 -14 11 -26 25 -26 31 0 6 -8 29 -19 52
-10 23 -23 55 -29 71 -29 84 -36 103 -53 141 -11 23 -19 45 -19 50 0 5 -14 43
-31 84 -17 41 -53 135 -81 208 -61 160 -60 167 43 237 45 31 69 53 67 64 -6
29 -37 23 -93 -18 -51 -36 -59 -39 -86 -29 -41 14 -55 51 -34 94 19 40 19 82
0 114 -8 14 -19 37 -26 53 -6 15 -15 27 -19 27 -4 0 -13 12 -19 28 -6 15 -15
34 -20 42 -27 42 -131 230 -131 237 0 13 -39 43 -44 34z"/>
<path d="M1211 1256 c-6 -7 -15 -45 -20 -83 -5 -39 -13 -79 -19 -89 -5 -10
-13 -46 -17 -79 -5 -33 -14 -74 -21 -92 -8 -18 -14 -51 -14 -73 0 -22 -7 -57
-15 -77 -8 -20 -18 -61 -21 -92 -3 -31 -12 -74 -19 -96 -8 -22 -16 -63 -20
-92 -3 -28 -12 -68 -20 -87 -27 -64 -20 -103 25 -148 36 -36 44 -40 75 -35 19
3 42 13 51 21 8 9 20 16 25 16 5 0 9 8 9 18 0 9 7 30 15 46 8 15 19 55 25 88
5 33 13 65 18 71 6 7 13 36 17 65 4 30 13 66 21 80 8 15 14 41 14 59 0 18 9
55 20 83 11 28 20 64 20 80 0 16 6 44 14 62 8 18 19 59 25 92 11 64 4 88 -40
137 -13 14 -46 51 -72 82 -52 61 -58 65 -76 43z"/>
</g>
</svg>
