<?xml version="1.0" standalone="no"?>
<!DOCTYPE svg PUBLIC "-//W3C//DTD SVG 20010904//EN"
 "http://www.w3.org/TR/2001/REC-SVG-20010904/DTD/svg10.dtd">
<svg version="1.0" xmlns="http://www.w3.org/2000/svg"
 width="300.000000pt" height="300.000000pt" viewBox="0 0 300.000000 300.000000"
 preserveAspectRatio="xMidYMid meet">
<metadata>
Created by potrace 1.10, written by Peter Selinger 2001-2011
</metadata>
<g transform="translate(0.000000,300.000000) scale(0.100000,-0.100000)"
fill="#000000" stroke="none">
<path d="M1240 2488 c-38 -26 -79 -99 -80 -141 0 -41 38 -115 75 -143 26 -19
44 -24 92 -24 57 0 63 3 99 38 53 51 71 113 51 172 -16 47 -58 97 -94 111 -44
16 -108 10 -143 -13z"/>
<path d="M1170 2085 c-7 -8 -19 -15 -26 -15 -8 0 -14 -4 -14 -8 0 -4 -15 -16
-32 -27 -59 -34 -213 -147 -223 -164 -12 -19 -54 -159 -65 -216 -4 -22 -12
-53 -19 -68 -17 -43 -13 -72 14 -101 26 -29 69 -34 97 -12 10 7 33 70 56 153
21 78 45 148 53 155 30 31 102 77 110 72 12 -7 11 -127 -1 -159 -14 -36 -18
-224 -5 -233 15 -10 209 -240 267 -316 25 -33 45 -63 43 -67 -3 -3 -12 -84
-21 -180 -9 -96 -19 -195 -21 -220 -4 -42 -2 -48 27 -72 37 -31 41 -32 79 -13
23 12 30 25 39 73 14 75 34 289 39 419 5 110 8 99 -75 245 -81 145 -83 149
-71 230 5 40 14 112 19 159 5 47 14 106 19 130 6 25 11 68 11 96 0 64 -17 80
-131 122 -93 35 -150 40 -169 17z"/>
<path d="M1506 1744 l-7 -96 46 -96 c26 -53 61 -111 79 -129 23 -23 39 -55 55
-110 12 -43 28 -96 36 -118 7 -22 20 -67 30 -100 9 -33 21 -70 26 -83 5 -13 9
-32 9 -43 0 -10 4 -27 9 -37 14 -25 41 -118 41 -139 0 -11 6 -25 12 -31 12
-12 14 -82 6 -152 l-3 -25 148 -3 c165 -3 171 0 123 63 -22 29 -31 33 -92 38
-66 6 -104 26 -104 52 0 7 -7 26 -15 41 -8 16 -15 37 -15 46 0 9 -4 20 -10 23
-5 3 -10 15 -10 25 0 11 -6 34 -14 52 -8 18 -27 67 -41 108 -15 41 -40 110
-56 152 -16 43 -29 86 -29 97 0 11 18 34 43 53 56 44 67 55 67 67 0 18 -23 13
-62 -14 -20 -14 -46 -25 -57 -25 -29 0 -46 36 -32 67 18 38 13 70 -18 126 -15
29 -52 97 -80 151 -80 153 -77 152 -85 40z"/>
<path d="M1125 1352 c-10 -6 -19 -43 -45 -187 -5 -27 -16 -84 -25 -125 -9 -41
-20 -97 -24 -125 -5 -27 -16 -84 -25 -125 -30 -134 -30 -152 -6 -183 13 -16
31 -27 46 -27 33 0 74 28 74 51 0 10 5 21 10 24 5 3 10 19 10 35 0 16 5 41 11
57 7 15 15 48 20 73 4 25 15 74 24 110 9 36 20 83 25 105 4 22 13 56 19 75 6
19 11 53 11 75 -1 40 -4 45 -95 152 -11 12 -25 20 -30 15z"/>
</g>
</svg>
