<?xml version="1.0" standalone="no"?>
<!DOCTYPE svg PUBLIC "-//W3C//DTD SVG 20010904//EN"
 "http://www.w3.org/TR/2001/REC-SVG-20010904/DTD/svg10.dtd">
<svg version="1.0" xmlns="http://www.w3.org/2000/svg"
 width="300.000000pt" height="300.000000pt" viewBox="0 0 300.000000 300.000000"
 preserveAspectRatio="xMidYMid meet">
<metadata>
Created by potrace 1.10, written by Peter Selinger 2001-2011
</metadata>
<g transform="translate(0.000000,300.000000) scale(0.100000,-0.100000)"
fill="#000000" stroke="none">
<path d="M1452 2329 c-7 -24 -17 -62 -22 -84 -8 -37 -15 -67 -40 -165 -5 -19
-16 -66 -26 -105 -26 -114 -32 -125 -65 -125 -16 0 -29 5 -29 10 0 6 -4 10 -9
10 -5 0 -84 50 -175 110 -91 61 -170 110 -177 110 -6 0 -9 -8 -6 -17 8 -30 67
-252 94 -353 14 -52 29 -111 33 -130 5 -19 12 -45 15 -58 8 -23 -17 -62 -39
-62 -6 0 -47 -17 -91 -38 -44 -21 -110 -51 -147 -67 -80 -35 -78 -40 33 -80
62 -22 81 -25 98 -16 27 15 27 25 0 43 -29 19 -18 56 19 64 15 4 70 21 122 38
93 31 95 32 93 61 -2 45 -10 79 -53 230 -17 57 -23 132 -12 139 10 6 38 -5 66
-27 49 -37 212 -137 220 -134 5 2 17 34 27 73 34 138 69 267 74 273 13 12 41
-19 48 -55 5 -21 13 -47 18 -56 5 -10 9 -27 9 -39 0 -12 7 -42 15 -68 7 -25
19 -65 26 -88 7 -24 14 -43 17 -43 6 0 254 180 270 197 7 7 17 13 21 13 4 0
16 8 27 19 29 26 63 36 69 19 4 -11 -104 -249 -155 -340 -6 -10 -10 -20 -10
-23 0 -3 73 -5 163 -5 173 0 209 -8 184 -41 -7 -9 -30 -25 -52 -35 -22 -11
-74 -37 -115 -58 -69 -35 -73 -39 -51 -47 18 -7 34 -3 70 19 25 16 53 32 61
36 18 8 25 12 153 91 l98 60 -190 5 c-132 3 -194 9 -202 17 -13 13 -5 30 200
431 34 67 61 127 59 132 -2 6 -61 -26 -131 -70 -71 -44 -131 -80 -134 -80 -3
0 -20 -10 -37 -23 -17 -13 -38 -27 -46 -31 -20 -9 -40 -21 -133 -79 -43 -27
-84 -46 -92 -43 -14 5 -30 48 -45 121 -5 22 -16 67 -25 100 -9 33 -20 78 -24
100 -5 22 -13 53 -20 68 -6 16 -11 41 -11 56 0 15 -4 31 -9 37 -5 5 -11 18
-13 28 -2 13 -8 4 -16 -25z"/>
<path d="M1375 1401 c-22 -10 -54 -32 -71 -48 -22 -21 -48 -33 -95 -42 -151
-30 -212 -59 -207 -100 3 -27 69 -80 101 -81 9 0 25 -4 35 -9 48 -26 147 -36
362 -36 212 0 300 8 365 35 11 4 35 14 53 20 49 19 82 49 82 75 0 39 -57 65
-214 96 -71 14 -94 23 -120 48 -17 16 -48 37 -68 45 -53 22 -172 21 -223 -3z"/>
<path d="M920 1072 c-5 -20 -13 -71 -16 -113 -6 -71 -5 -77 17 -98 29 -28 120
-71 174 -83 157 -35 229 -43 405 -43 176 0 248 8 405 43 54 12 145 55 174 83
22 21 23 27 17 98 -3 42 -11 93 -16 113 l-11 37 -67 -33 c-253 -127 -751 -127
-1004 0 l-67 33 -11 -37z"/>
</g>
</svg>
