<?xml version="1.0" standalone="no"?>
<!DOCTYPE svg PUBLIC "-//W3C//DTD SVG 20010904//EN"
 "http://www.w3.org/TR/2001/REC-SVG-20010904/DTD/svg10.dtd">
<svg version="1.0" xmlns="http://www.w3.org/2000/svg"
 width="300.000000pt" height="300.000000pt" viewBox="0 0 300.000000 300.000000"
 preserveAspectRatio="xMidYMid meet">
<metadata>
Created by potrace 1.10, written by Peter Selinger 2001-2011
</metadata>
<g transform="translate(0.000000,300.000000) scale(0.100000,-0.100000)"
fill="#000000" stroke="none">
<path d="M1330 2941 c0 -17 5 -33 10 -36 6 -3 10 -42 10 -85 0 -81 5 -95 30
-80 12 7 12 16 2 55 -7 25 -12 74 -12 110 0 58 -2 65 -20 65 -15 0 -20 -7 -20
-29z"/>
<path d="M1480 2860 c0 -103 1 -110 20 -110 19 0 20 7 20 110 0 103 -1 110
-20 110 -19 0 -20 -7 -20 -110z"/>
<path d="M1627 2888 c-2 -46 -8 -96 -12 -112 -5 -19 -4 -31 6 -36 24 -15 29 0
29 86 0 49 4 84 10 84 6 0 10 14 10 30 0 23 -5 30 -19 30 -17 0 -20 -9 -24
-82z"/>
<path d="M1180 2922 c0 -20 4 -31 10 -27 6 4 10 -9 10 -33 0 -58 11 -103 23
-95 6 4 8 0 5 -9 -4 -8 -2 -21 2 -29 14 -22 25 18 12 44 -7 12 -16 51 -22 86
-11 74 -40 119 -40 63z"/>
<path d="M1793 2943 c-8 -3 -13 -25 -13 -58 0 -29 -7 -66 -15 -81 -16 -32 -20
-94 -6 -94 12 0 21 23 38 100 29 132 29 147 -4 133z"/>
<path d="M1040 2890 c-10 -6 -11 -10 -2 -10 6 0 12 -8 12 -17 0 -10 6 -35 14
-58 8 -22 20 -59 27 -82 12 -43 24 -54 32 -30 5 17 -3 47 -14 47 -5 0 -9 12
-9 28 -1 15 -7 38 -15 52 -8 14 -14 37 -15 53 0 29 -6 32 -30 17z"/>
<path d="M1930 2881 c0 -10 -7 -32 -15 -47 -8 -16 -15 -38 -15 -49 0 -12 -4
-25 -9 -30 -16 -18 -22 -75 -7 -75 15 0 36 42 36 74 0 12 7 31 15 42 8 10 15
29 15 41 0 12 5 25 10 28 18 11 11 35 -10 35 -13 0 -20 -7 -20 -19z"/>
<path d="M895 2840 c-7 -12 34 -110 47 -110 4 0 8 -8 8 -18 0 -24 29 -82 41
-82 18 0 9 40 -25 112 -19 40 -37 81 -40 91 -6 19 -21 23 -31 7z"/>
<path d="M2074 2833 c-3 -10 -21 -51 -40 -91 -32 -69 -43 -112 -26 -112 11 0
42 59 42 81 0 10 4 19 8 19 13 0 54 98 47 110 -10 16 -25 12 -31 -7z"/>
<path d="M750 2766 c0 -8 6 -21 13 -28 6 -8 17 -23 23 -33 6 -11 23 -42 38
-70 34 -62 38 -66 53 -57 9 6 9 13 -2 32 -8 14 -19 34 -25 45 -51 95 -68 120
-83 123 -10 2 -17 -3 -17 -12z"/>
<path d="M2213 2768 c-5 -7 -17 -29 -27 -48 -9 -19 -26 -48 -36 -65 -32 -48
-39 -69 -26 -77 14 -9 18 -4 52 57 15 28 32 59 38 70 6 10 17 25 24 33 6 7 12
20 12 28 0 17 -24 18 -37 2z"/>
<path d="M627 2693 c-8 -7 15 -45 50 -83 13 -14 23 -29 23 -35 1 -19 57 -78
68 -71 11 6 6 35 -8 46 -14 11 -90 120 -90 129 0 5 -7 12 -16 15 -19 7 -19 7
-27 -1z"/>
<path d="M2343 2693 c-7 -2 -13 -10 -13 -16 0 -7 -11 -24 -25 -39 -14 -15 -25
-31 -25 -35 0 -5 -10 -19 -23 -33 -29 -32 -39 -58 -25 -66 11 -7 67 52 68 71
0 6 10 21 23 35 59 64 68 103 20 83z"/>
<path d="M507 2593 c-4 -3 12 -27 36 -52 23 -25 53 -59 67 -76 41 -48 57 -58
63 -40 4 9 -14 36 -49 72 -31 32 -62 68 -71 81 -15 22 -34 28 -46 15z"/>
<path d="M2447 2578 c-8 -13 -40 -49 -71 -80 -36 -38 -53 -63 -50 -73 7 -18
23 -8 64 40 14 16 44 50 67 74 23 25 39 49 37 53 -9 15 -32 8 -47 -14z"/>
<path d="M404 2485 c-5 -12 -1 -22 10 -31 10 -7 39 -32 65 -55 83 -77 86 -78
99 -70 10 6 2 18 -29 47 -150 140 -137 130 -145 109z"/>
<path d="M2536 2455 c-27 -25 -60 -55 -74 -68 -45 -38 -55 -54 -38 -60 9 -4
32 10 57 34 24 22 60 55 81 72 34 28 51 67 30 67 -5 0 -30 -20 -56 -45z"/>
<path d="M1447 2373 c-9 -73 -23 -145 -36 -176 -6 -16 -11 -41 -11 -57 0 -16
-4 -32 -10 -35 -5 -3 -10 -20 -10 -36 0 -16 -7 -46 -15 -66 -8 -19 -15 -47
-15 -62 0 -14 -4 -32 -9 -40 -12 -18 -3 -41 15 -41 17 0 18 -26 2 -85 -7 -25
-18 -45 -26 -45 -7 0 -59 29 -114 65 -103 66 -118 73 -118 55 0 -11 36 -50 46
-50 4 0 28 -16 54 -35 26 -19 52 -35 56 -35 5 0 29 -18 53 -40 24 -22 47 -40
51 -40 9 0 30 79 30 112 0 13 7 36 15 52 8 15 15 46 15 67 0 22 5 39 10 39 6
0 10 23 10 51 0 45 -2 50 -15 39 -13 -11 -15 -8 -15 16 0 34 35 177 49 202 11
20 11 21 40 -85 17 -62 18 -82 9 -137 -9 -54 -8 -69 6 -96 9 -18 16 -50 16
-71 0 -21 4 -40 9 -43 4 -3 11 -29 15 -58 4 -28 12 -60 17 -70 10 -18 14 -16
57 22 55 48 42 38 162 125 100 71 158 127 140 133 -9 3 -188 -119 -223 -152
-28 -26 -87 -66 -97 -66 -11 0 -23 27 -34 76 l-7 31 48 -4 c47 -4 54 -1 272
132 123 75 226 133 229 130 3 -3 -44 -104 -106 -224 -70 -138 -112 -230 -112
-249 0 -35 -9 -45 -29 -32 -11 6 2 40 59 154 40 81 70 149 68 152 -10 9 -37
-8 -43 -27 -4 -10 -11 -19 -16 -19 -5 0 -9 -6 -9 -14 0 -17 -32 -80 -42 -84
-5 -2 -8 -12 -8 -22 0 -9 -7 -23 -15 -30 -8 -7 -15 -18 -15 -25 0 -14 -16 -46
-44 -88 -15 -22 -16 -30 -6 -42 8 -10 17 -12 24 -6 17 14 356 20 356 7 0 -14
-36 -46 -50 -46 -6 0 -47 -17 -93 -39 -45 -21 -99 -46 -121 -56 -21 -9 -34
-20 -30 -25 16 -14 78 -30 83 -22 3 5 13 12 21 15 8 4 29 16 45 27 17 11 37
23 45 27 8 3 17 9 20 12 5 6 45 28 103 58 15 8 27 19 27 24 0 5 9 9 20 9 11 0
20 3 20 8 0 4 21 15 45 26 50 20 55 42 9 40 -16 -1 -112 -3 -214 -4 -177 -2
-185 -1 -188 18 -2 11 8 32 22 47 15 16 26 36 26 45 0 10 7 23 15 30 8 7 15
21 15 30 0 10 4 20 8 22 4 2 28 44 52 93 25 50 47 92 50 95 3 3 20 35 38 71
17 36 42 81 55 100 13 19 26 42 29 51 11 29 -16 27 -46 -3 -16 -16 -35 -29
-42 -29 -7 0 -14 -3 -16 -7 -4 -11 -128 -93 -139 -93 -5 0 -9 -4 -9 -9 0 -5
-8 -11 -17 -15 -19 -6 -54 -27 -63 -37 -3 -3 -12 -8 -20 -12 -8 -3 -37 -20
-65 -37 -27 -17 -58 -33 -67 -36 -10 -4 -18 -10 -18 -15 0 -5 -6 -9 -13 -9 -7
0 -27 -13 -45 -30 -19 -17 -44 -30 -58 -30 -23 0 -25 3 -20 28 4 16 0 39 -9
56 -8 15 -15 46 -15 67 0 22 -4 39 -10 39 -5 0 -10 17 -10 38 0 21 -7 47 -15
58 -8 10 -15 40 -15 67 0 26 -4 47 -9 47 -4 0 -11 24 -14 53 -8 65 -25 127
-37 127 -4 0 -10 -21 -13 -47z"/>
<path d="M306 2371 c-8 -13 4 -41 18 -41 6 0 23 -11 38 -25 15 -14 31 -25 35
-25 5 0 19 -10 33 -23 32 -29 58 -39 66 -25 7 11 -52 67 -71 68 -6 0 -21 10
-35 23 -41 38 -78 59 -84 48z"/>
<path d="M2660 2363 c-14 -10 -36 -28 -50 -40 -14 -13 -29 -23 -35 -23 -19 -1
-78 -57 -71 -68 8 -14 34 -4 66 25 14 13 28 23 33 23 4 0 20 11 35 25 15 14
32 25 38 25 15 0 27 31 16 42 -4 4 -19 0 -32 -9z"/>
<path d="M220 2237 c0 -19 21 -37 42 -37 10 0 18 -4 18 -9 0 -5 8 -11 18 -15
9 -3 31 -15 47 -26 47 -31 69 -39 77 -26 9 14 4 18 -57 52 -27 15 -59 32 -70
38 -10 6 -25 17 -33 24 -18 16 -42 16 -42 -1z"/>
<path d="M2738 2238 c-8 -7 -23 -18 -33 -24 -11 -6 -42 -23 -70 -38 -27 -16
-53 -30 -57 -32 -4 -3 -5 -11 -2 -18 6 -17 43 -9 51 10 3 8 13 14 23 14 10 0
23 7 30 15 7 8 19 15 26 15 8 0 14 5 14 10 0 6 8 10 19 10 22 0 45 25 36 40
-8 13 -21 13 -37 -2z"/>
<path d="M872 2107 c6 -18 14 -36 18 -42 4 -5 15 -37 24 -70 9 -33 21 -69 25
-80 5 -11 17 -56 27 -100 10 -44 21 -84 26 -89 4 -6 8 -24 8 -41 0 -17 7 -40
15 -51 8 -10 15 -34 15 -52 0 -18 7 -40 15 -48 21 -21 19 -35 -5 -41 -11 -3
-20 -9 -20 -14 0 -5 -13 -9 -29 -9 -17 0 -33 -4 -36 -10 -3 -5 -14 -10 -24
-10 -10 0 -24 -7 -31 -15 -7 -8 -21 -15 -32 -15 -11 0 -26 -7 -34 -15 -9 -8
-24 -15 -35 -15 -10 0 -19 -4 -19 -10 0 -5 -11 -10 -24 -10 -14 0 -28 -4 -31
-10 -3 -5 -16 -10 -28 -10 -12 0 -28 -4 -35 -9 -21 -13 13 -41 51 -41 18 0 63
-13 101 -29 l69 -28 39 21 c57 31 47 70 -12 46 -33 -14 -87 -7 -116 14 -18 14
-18 15 11 27 17 7 37 11 47 10 9 -1 19 3 23 9 3 5 28 10 55 10 27 0 52 5 55
10 3 6 18 10 33 10 15 0 36 7 46 15 11 8 35 15 53 15 31 0 33 2 33 33 0 18 -7
42 -15 53 -8 10 -15 38 -15 61 0 23 -4 45 -10 48 -5 3 -10 21 -10 38 0 18 -7
45 -15 61 -8 15 -15 39 -15 52 0 13 -9 28 -20 34 -20 10 -21 9 -18 -29 1 -23
5 -41 9 -41 4 0 10 -21 14 -47 5 -27 10 -52 11 -58 43 -152 44 -172 9 -181
-33 -8 -40 -1 -20 20 16 16 17 75 2 131 -3 11 -15 56 -26 100 -12 44 -35 125
-51 180 -33 111 -36 135 -17 135 6 0 77 -43 157 -95 119 -79 150 -95 180 -93
l35 1 -32 4 c-18 2 -33 10 -33 16 0 7 -30 32 -67 57 -38 25 -70 47 -73 50 -10
10 -45 31 -62 36 -10 4 -18 10 -18 15 0 5 -7 9 -15 9 -8 0 -15 4 -15 9 0 5 -9
12 -19 16 -10 3 -36 22 -57 41 -20 20 -47 40 -60 44 -22 9 -22 8 -12 -23z"/>
<path d="M2807 2102 c-15 -9 -27 -20 -27 -24 0 -4 -6 -5 -14 -2 -7 3 -20 -2
-29 -10 -9 -9 -22 -16 -30 -16 -20 0 -77 -30 -77 -40 0 -21 39 -12 114 26 45
22 88 43 95 45 10 4 11 10 5 21 -8 15 -11 15 -37 0z"/>
<path d="M150 2098 c0 -16 183 -104 205 -100 8 2 15 7 15 10 0 11 -60 42 -81
42 -10 0 -19 3 -19 8 0 8 -91 52 -109 52 -6 0 -11 -6 -11 -12z"/>
<path d="M100 1951 c0 -16 6 -21 24 -21 14 0 27 -4 30 -9 3 -5 23 -12 43 -16
21 -4 43 -10 48 -14 20 -16 75 -21 75 -7 0 17 -43 36 -80 36 -15 0 -30 5 -32
11 -2 5 -19 14 -38 18 -19 5 -43 12 -52 16 -14 5 -18 2 -18 -14z"/>
<path d="M2865 1960 c-3 -5 -16 -10 -28 -10 -12 0 -31 -7 -41 -15 -11 -8 -30
-15 -42 -15 -32 0 -74 -21 -74 -36 0 -14 55 -9 75 7 6 4 27 10 48 14 20 4 40
11 43 16 3 5 18 9 34 9 23 0 27 3 23 20 -6 21 -28 27 -38 10z"/>
<path d="M50 1813 c0 -21 27 -33 71 -33 26 0 60 -7 75 -15 32 -16 94 -20 94
-6 0 13 -26 23 -100 38 -101 21 -140 26 -140 16z"/>
<path d="M2870 1811 c-8 -6 -37 -12 -65 -16 -53 -6 -95 -23 -95 -37 0 -13 63
-9 94 7 15 8 52 15 81 15 49 0 65 9 65 36 0 8 -65 4 -80 -5z"/>
<path d="M30 1651 c0 -17 9 -20 83 -24 45 -2 95 -8 111 -12 19 -5 31 -4 36 6
15 24 0 29 -80 29 -43 0 -82 5 -85 10 -3 6 -19 10 -36 10 -22 0 -29 -5 -29
-19z"/>
<path d="M2904 1660 c-5 -5 -45 -10 -89 -12 -63 -2 -80 -6 -80 -18 0 -11 9
-14 35 -12 19 2 72 5 118 8 72 5 82 8 82 25 0 14 -7 19 -28 19 -15 0 -32 -4
-38 -10z"/>
<path d="M30 1500 c0 -19 7 -20 110 -20 103 0 110 1 110 20 0 19 -7 20 -110
20 -103 0 -110 -1 -110 -20z"/>
<path d="M2750 1500 c0 -19 7 -20 110 -20 103 0 110 1 110 20 0 19 -7 20 -110
20 -103 0 -110 -1 -110 -20z"/>
<path d="M1440 1430 c-8 -5 -29 -10 -45 -10 -22 0 -43 -11 -73 -40 -23 -23
-42 -45 -42 -50 0 -6 -19 -10 -42 -10 -23 0 -55 -4 -72 -9 -193 -57 -220 -79
-166 -131 17 -17 37 -30 45 -30 8 0 15 -4 15 -10 0 -5 10 -10 23 -10 12 -1 33
-7 47 -15 14 -8 41 -14 61 -15 19 0 40 -5 46 -11 16 -16 526 -16 531 0 2 6 20
11 40 11 21 1 48 7 62 15 14 8 33 14 43 15 25 0 94 46 107 70 9 17 6 24 -14
43 -21 20 -100 51 -156 61 -8 2 -22 6 -30 9 -8 3 -36 7 -62 9 -39 3 -53 10
-95 49 -49 46 -64 52 -168 65 -22 2 -47 0 -55 -6z m119 -45 c29 -7 63 -23 75
-34 12 -12 26 -21 30 -21 4 0 14 -7 22 -15 13 -13 49 -20 77 -16 4 0 7 -4 7
-9 0 -5 12 -10 27 -10 45 0 141 -31 160 -52 17 -19 17 -20 -2 -35 -121 -91
-518 -121 -770 -57 -74 18 -141 50 -149 70 -8 21 46 51 114 64 30 6 63 15 72
20 10 6 26 10 37 10 11 0 41 16 67 36 78 60 142 74 233 49z"/>
<path d="M200 1380 c-8 -5 -50 -10 -92 -10 -71 0 -78 -2 -78 -20 0 -16 7 -20
30 -20 17 0 30 4 30 10 0 5 39 11 88 12 69 2 87 6 87 18 0 18 -43 25 -65 10z"/>
<path d="M2737 1377 c-8 -21 13 -27 93 -27 38 0 72 -4 75 -10 3 -5 19 -10 36
-10 22 0 29 5 29 19 0 17 -9 20 -82 24 -46 3 -97 8 -114 12 -23 5 -33 3 -37
-8z"/>
<path d="M196 1235 c-15 -8 -46 -15 -68 -15 -42 0 -78 -14 -78 -31 0 -12 33
-9 140 14 77 16 102 26 94 38 -8 14 -56 11 -88 -6z"/>
<path d="M2710 1241 c0 -13 26 -23 100 -38 124 -26 144 -27 137 -8 -4 9 -7 19
-7 21 0 2 -24 4 -54 4 -29 0 -67 7 -82 15 -32 16 -94 20 -94 6z"/>
<path d="M909 1148 c0 -2 -2 -40 -3 -85 -1 -49 -7 -88 -14 -95 -23 -23 -14
-82 16 -109 34 -31 85 -59 106 -59 9 0 16 -4 16 -10 0 -5 16 -10 36 -10 19 0
42 -7 50 -15 10 -10 35 -15 75 -15 33 0 59 -4 59 -10 0 -6 90 -10 249 -10 156
0 252 4 256 10 3 6 30 10 60 10 34 0 59 5 69 15 8 8 31 15 50 15 20 0 36 5 36
10 0 6 7 10 16 10 21 0 72 28 107 59 31 28 33 46 13 113 -8 25 -13 74 -12 108
1 33 -1 63 -5 66 -4 2 -21 -8 -38 -23 -50 -47 -59 -53 -78 -53 -10 0 -27 -7
-37 -15 -11 -8 -32 -15 -48 -15 -15 0 -28 -4 -28 -10 0 -5 -22 -10 -49 -10
-27 0 -65 -7 -85 -15 -48 -20 -467 -18 -474 3 -2 7 -23 12 -58 12 -30 0 -54 5
-54 10 0 6 -13 10 -28 10 -16 0 -37 7 -48 15 -10 8 -28 15 -39 15 -12 0 -40
18 -64 40 -39 37 -50 44 -52 38z m84 -102 c72 -32 185 -65 247 -71 25 -3 79
-10 120 -16 77 -11 321 -6 343 8 6 4 36 9 67 10 30 2 59 8 64 13 6 6 20 10 33
10 20 0 73 17 128 41 52 22 59 18 71 -50 20 -108 1 -130 -156 -180 -113 -37
-192 -46 -390 -46 -229 0 -319 9 -429 45 -134 43 -161 65 -161 129 0 47 16
121 26 121 3 0 20 -6 37 -14z"/>
<path d="M280 1123 c-14 -3 -29 -9 -35 -14 -5 -5 -18 -9 -30 -9 -11 0 -33 -7
-49 -15 -15 -8 -37 -15 -47 -15 -13 0 -19 -7 -19 -21 0 -16 4 -19 18 -14 9 4
32 11 51 15 18 5 38 13 44 19 6 6 21 11 34 11 31 0 73 21 73 37 0 7 -3 12 -7
12 -5 -1 -19 -4 -33 -6z"/>
<path d="M2680 1115 c0 -14 43 -35 73 -35 13 0 31 -6 42 -14 11 -7 31 -15 45
-18 14 -3 33 -9 43 -13 13 -5 17 -2 17 14 0 15 -6 21 -23 21 -13 0 -27 4 -32
9 -6 6 -26 13 -45 16 -19 3 -39 10 -45 14 -17 14 -75 19 -75 6z"/>
<path d="M254 964 c-45 -23 -87 -43 -93 -45 -7 -3 -9 -12 -6 -21 6 -15 12 -14
58 10 29 15 54 30 55 35 2 4 12 7 21 7 22 0 81 29 81 40 0 21 -42 11 -116 -26z"/>
<path d="M2630 991 c0 -12 57 -41 81 -41 9 0 19 -3 21 -8 2 -4 26 -19 55 -34
43 -22 52 -24 57 -11 7 18 -1 33 -17 33 -7 0 -45 16 -86 35 -72 35 -111 44
-111 26z"/>
<path d="M393 879 c-13 -5 -23 -13 -23 -19 0 -5 -8 -10 -19 -10 -10 0 -24 -7
-31 -15 -7 -8 -19 -15 -26 -15 -8 0 -14 -4 -14 -10 0 -5 -8 -10 -18 -10 -21 0
-42 -18 -42 -37 0 -17 24 -17 42 0 8 6 23 17 33 23 11 6 43 23 70 38 61 34 66
38 57 52 -4 7 -15 8 -29 3z"/>
<path d="M2576 874 c-3 -7 -2 -15 2 -18 4 -2 30 -16 57 -32 28 -15 59 -32 70
-38 10 -6 25 -17 33 -23 18 -17 42 -17 42 0 0 19 -21 37 -42 37 -10 0 -18 5
-18 10 0 6 -6 10 -14 10 -7 0 -19 7 -26 15 -7 8 -20 15 -30 15 -10 0 -20 6
-23 14 -8 19 -45 27 -51 10z"/>
<path d="M470 772 c-8 -3 -26 -16 -39 -29 -14 -12 -29 -23 -34 -23 -4 0 -20
-11 -35 -25 -15 -14 -32 -25 -38 -25 -15 0 -27 -31 -16 -42 8 -8 93 46 100 64
2 4 9 8 15 8 22 1 83 58 72 68 -5 5 -17 7 -25 4z"/>
<path d="M2504 769 c-6 -10 54 -69 71 -69 6 0 21 -10 35 -23 41 -38 78 -59 84
-48 8 13 -4 41 -18 41 -6 0 -23 11 -38 25 -15 14 -31 25 -35 25 -5 0 -19 10
-33 23 -31 29 -57 39 -66 26z"/>
<path d="M518 638 c-23 -22 -60 -54 -80 -71 -36 -30 -47 -50 -30 -61 4 -2 28
15 53 37 25 23 58 53 74 67 48 41 58 57 41 63 -8 3 -33 -11 -58 -35z"/>
<path d="M2423 672 c-15 -10 -5 -22 89 -106 64 -56 79 -65 84 -51 5 12 -7 28
-42 58 -27 23 -64 57 -83 75 -19 17 -35 32 -35 32 -1 0 -6 -4 -13 -8z"/>
<path d="M644 572 c-10 -11 -34 -37 -53 -58 -19 -21 -48 -53 -64 -71 -26 -28
-28 -33 -13 -39 12 -4 28 6 55 37 21 24 54 61 74 83 20 21 33 45 30 52 -6 17
-5 18 -29 -4z"/>
<path d="M2327 577 c-3 -8 13 -34 35 -58 22 -24 54 -61 71 -81 30 -36 50 -47
61 -30 2 4 -15 28 -37 53 -23 25 -53 58 -67 74 -40 47 -57 58 -63 42z"/>
<path d="M726 466 c-14 -19 -26 -38 -26 -43 0 -4 -10 -19 -23 -33 -38 -41 -59
-78 -48 -84 13 -8 41 4 41 18 0 6 11 23 25 38 14 15 25 31 25 35 0 5 11 20 24
34 14 15 26 35 28 44 5 32 -18 27 -46 -9z"/>
<path d="M2227 494 c-9 -9 4 -36 30 -64 13 -14 23 -28 23 -33 0 -4 11 -20 25
-35 14 -15 25 -32 25 -38 0 -14 28 -26 41 -18 11 6 -10 43 -48 84 -13 14 -23
29 -23 35 0 10 -54 75 -62 75 -3 0 -7 -3 -11 -6z"/>
<path d="M856 422 c-2 -4 -16 -29 -32 -57 -15 -27 -32 -59 -38 -70 -6 -10 -17
-25 -23 -33 -19 -20 -16 -44 4 -40 10 2 28 23 39 47 12 24 27 48 33 54 6 6 11
19 11 28 0 9 6 19 14 22 19 8 27 45 10 51 -7 3 -15 2 -18 -2z"/>
<path d="M2124 422 c-14 -8 0 -52 16 -52 5 0 10 -9 10 -19 0 -11 5 -23 10 -26
6 -3 19 -26 31 -51 19 -42 43 -64 56 -51 6 7 2 17 -25 62 -10 17 -31 53 -46
80 -34 61 -38 66 -52 57z"/>
<path d="M964 333 c-9 -21 -31 -68 -49 -105 -27 -55 -31 -68 -18 -72 19 -8 33
1 33 20 0 8 16 46 35 84 35 69 44 110 25 110 -5 0 -16 -17 -26 -37z"/>
<path d="M2000 350 c0 -11 16 -52 35 -90 19 -38 35 -76 35 -84 0 -19 14 -28
33 -20 13 4 9 18 -20 77 -20 40 -43 87 -52 105 -18 36 -31 42 -31 12z"/>
<path d="M1092 295 c-7 -14 -12 -36 -12 -48 0 -13 -5 -28 -11 -34 -6 -6 -14
-26 -19 -44 -4 -19 -11 -42 -15 -52 -5 -13 -2 -17 14 -17 16 0 21 6 21 24 0
14 4 27 9 30 5 3 12 23 16 43 4 21 10 43 14 48 5 6 11 25 14 43 8 40 -14 45
-31 7z"/>
<path d="M1877 288 c3 -18 9 -37 14 -43 4 -5 10 -27 14 -48 4 -20 11 -40 16
-43 5 -3 9 -16 9 -30 0 -18 5 -24 21 -24 16 0 19 4 14 17 -4 10 -10 29 -13 43
-3 14 -11 34 -18 45 -8 11 -14 29 -14 42 0 31 -21 73 -36 73 -10 0 -12 -9 -7
-32z"/>
<path d="M1224 272 c-20 -45 -50 -222 -37 -222 21 0 33 27 33 71 0 26 7 60 15
75 17 32 20 80 6 88 -5 3 -12 -2 -17 -12z"/>
<path d="M1750 258 c0 -18 7 -46 15 -62 8 -15 15 -49 15 -75 0 -44 12 -71 33
-71 13 0 -11 145 -35 213 -14 37 -28 34 -28 -5z"/>
<path d="M1357 264 c-4 -4 -7 -45 -7 -91 0 -49 -4 -83 -10 -83 -5 0 -10 -13
-10 -30 0 -23 5 -30 19 -30 17 0 20 10 25 82 3 46 6 98 8 117 3 32 -10 50 -25
35z"/>
<path d="M1620 260 c-11 -7 -12 -15 -2 -48 7 -22 12 -71 12 -111 0 -64 2 -71
20 -71 15 0 20 7 20 29 0 17 -4 33 -10 36 -5 3 -10 39 -10 78 0 79 -8 101 -30
87z"/>
<path d="M1498 253 c-16 -4 -18 -18 -18 -114 0 -102 1 -109 20 -109 19 0 20 7
20 115 0 63 -1 114 -2 114 -2 -1 -11 -3 -20 -6z"/>
</g>
</svg>
